<svg version="1.1" viewBox="0.0 0.0 127.56430446194226 161.51181102362204" fill="none" stroke="none" stroke-linecap="square" stroke-miterlimit="10" xmlns:xlink="http://www.w3.org/1999/xlink" xmlns="http://www.w3.org/2000/svg"><clipPath id="p.0"><path d="m0 0l127.56431 0l0 161.51181l-127.56431 0l0 -161.51181z" clip-rule="nonzero"/></clipPath><g clip-path="url(#p.0)"><path fill="#000000" fill-opacity="0.0" d="m0 0l127.56431 0l0 161.51181l-127.56431 0z" fill-rule="evenodd"/><path fill="#e64628" d="m1.3699827 1.3847401l45.35433 0l11.338585 0l0 11.338583l0 90.69407l68.031494 0l0 0.014595032l0.1002655 0l0 56.69291l-0.1002655 0l-11.238319 0l-113.48609 0l0 -11.338577l0.016902804 0l0 -113.518425l-0.016902804 0l0 -11.338583l0.016902804 0l11.338583 0l11.321574 0l0 -1.04904175E-4l11.338581 0l0 1.04904175E-4l1.0681152E-4 0l0 11.338583l-1.0681152E-4 0l0 90.841255l68.03139 0l0 11.338593l-79.37008 0l0 -11.338593l1.04904175E-4 0l0 -90.841255l-11.321574 0l0 113.518425l102.1306 0l0 -34.030342l-56.793175 0l0 0.014595032l-11.338585 0l0 -0.014595032l0 -11.338585l0 -90.69407l-45.35433 0z" fill-rule="evenodd"/></g></svg>